<?xml version="1.0" encoding="utf-8"?>
<!-- Generator: Adobe Illustrator 19.2.0, SVG Export Plug-In . SVG Version: 6.00 Build 0)  -->
<svg version="1.1" id="Layer_1" xmlns="http://www.w3.org/2000/svg" xmlns:xlink="http://www.w3.org/1999/xlink" x="0px" y="0px"
	 viewBox="0 0 374.3 115" style="enable-background:new 0 0 374.3 115;" xml:space="preserve">
<style type="text/css">
	.st0{fill:#FFFFFF;}
</style>
<g>
	<path class="st0" d="M248.1,27.8c-16.4,0-29.7,13.3-29.7,29.7s13.3,29.7,29.7,29.7s29.7-13.3,29.7-29.7S264.5,27.8,248.1,27.8z
		 M248.1,76.1c-10.2,0-18.6-8.3-18.6-18.6S237.9,39,248.1,39c10.2,0,18.6,8.3,18.6,18.6S258.4,76.1,248.1,76.1z"/>
	<path class="st0" d="M187.8,27.8c-7,0-13.4,3.2-17.6,8.1c-4.3-5-10.6-8.1-17.6-8.1c-12.8,0-23.2,10.4-23.2,23.2v35.3h11.1V51
		c0-6.6,5.4-12.1,12.1-12.1c6.6,0,12.1,5.4,12.1,12.1v35.3h11.1V51c0-6.6,5.4-12.1,12.1-12.1c6.6,0,12.1,5.4,12.1,12.1v35.3H211V51
		C211,38.2,200.6,27.8,187.8,27.8z"/>
	<path class="st0" d="M344.6,27.8c-16.4,0-29.7,13.3-29.7,29.7s13.3,29.7,29.7,29.7c16.4,0,29.7-13.3,29.7-29.7S361,27.8,344.6,27.8
		z M344.6,76.1c-10.2,0-18.6-8.3-18.6-18.6S334.4,39,344.6,39c10.2,0,18.6,8.3,18.6,18.6S354.9,76.1,344.6,76.1z"/>
	<g>
		<path class="st0" d="M308.4,87.2c-12.8,0-23.2-10.4-23.2-23.2V14.4h11.1v14.4h14.4v11.1h-14.4V64c0,6.6,5.4,12.1,12.1,12.1l2.3,0
			v11.1L308.4,87.2z"/>
	</g>
	<g>
		<path class="st0" d="M57.5,0C25.8,0,0,25.7,0,57.5C0,89.3,25.8,115,57.5,115c31.8,0,57.5-25.7,57.5-57.5C115,25.7,89.3,0,57.5,0z
			 M92.2,86.3c0,0-2.8-12.4-7.3-19.9c-2.4-4.1-6.2-7.4-11.2-7.3c-3.5,0.1-6.6,2-10.4,7.4c-2.3,3.2-5.8,11.4-5.8,11.4
			s-3.6-8.2-5.8-11.4c-3.8-5.4-6.9-7.3-10.4-7.4c-5-0.1-8.8,3.2-11.2,7.3c-4.5,7.5-7.2,19.9-7.2,19.9h-4.1l22-71.8l16.6,56.2
			l0.1,0.1l0.2-0.1l16.7-56.2l22,71.8H92.2z"/>
	</g>
</g>
</svg>
