<?xml version="1.0" encoding="utf-8"?>
<!-- Generator: Adobe Illustrator 19.2.0, SVG Export Plug-In . SVG Version: 6.00 Build 0)  -->
<svg version="1.1" id="Layer_1" xmlns="http://www.w3.org/2000/svg" xmlns:xlink="http://www.w3.org/1999/xlink" x="0px" y="0px"
	 viewBox="0 0 328.9 115.7" style="enable-background:new 0 0 328.9 115.7;" xml:space="preserve">
<style type="text/css">
	.st0{fill:#FFFFFF;}
	.st1{fill:#E3241A;}
</style>
<path class="st0" d="M220.8,53.6c3.5,0,7.3,0,7.3-4.6V25c0-7-1.1-9.7-5.2-9.7h-2.1V53.6z M242.2,47.8c-0.4,9-8,18.2-17.1,18.2
	l-4.3,0v48.6l-15.5,0V2.4h19.7c10.3,0.3,16.6,8.6,17.1,16.6L242.2,47.8z"/>
<path class="st0" d="M270.1,67.3c-4.4,2.4-8.2,5-8.2,9.5v23.4c0.3,2,1.6,3.4,4,3.4c2.1,0,4.3-1.7,4.3-4L270.1,67.3z M284.3,114.6
	h-13.3c-0.9-1.9-0.9-4.1-0.9-6.2h-0.9c-3.3,5.3-6,7.3-11.6,7.3c-6.8,0-10.2-3.6-10.2-10.4V75.1c0-17.5,22.2-9.1,22.2-31.5
	c0-3,0.7-9.9-3.4-9.9c-4.5,0-4.1,5.7-4.2,9.7v12.7h-14.5l0-17.5c0-9.5,7.2-15.1,18.6-15.1c11.4,0,18.2,5.9,18.2,15.1V114.6z"/>
<path class="st0" d="M306.3,97.9c0,4.2,1.8,5.6,3.9,5.6c2.3,0,4.2-0.8,4.4-5.6l0-56.8c-0.2-4.8-2.2-5.3-4.4-5.3
	c-2.6,0-3.9,1.7-3.9,5.3V97.9z M328.9,114.6l-14.3,0v-5.4h-1c-2.3,3.4-7,6.5-10.7,6.5c-5.9,0-11-3.2-10.9-10.7V33.3
	c0-6.5,5.1-9.9,10.9-9.9c4.8,0,9.1,3.4,11.3,6.9h0.4l0-28.1h14.3L328.9,114.6z"/>
<polygon class="st0" points="0,2.3 0,16.4 15.1,16.4 15.1,114.3 30.1,114.3 30.1,16.4 45,16.4 45,2.3 "/>
<path class="st1" d="M111,9.7c0,5.1-4.1,9.3-9.3,9.3c-5.1,0-9.3-4.2-9.3-9.3c0-5.1,4.2-9.3,9.3-9.3C106.8,0.3,111,4.5,111,9.7"/>
<path class="st0" d="M63.7,29.9h0.6c2.2-4.8,6.7-6.5,10.7-6.5c9.8,0,11.4,5,11.4,14.5l0,76.5H72.5V41c0-3-1.1-5.3-4.4-5.3
	c-3.7,0-4.7,2.9-4.7,5.2v73.6H49.5V2.1h14.2V29.9z"/>
<polygon class="st0" points="94.7,114.5 109,114.5 109,24.6 94.7,24.6 "/>
<path class="st0" d="M117.1,24.7h14.2l0,5.3h0.6c2-4.1,6.4-6.3,10.8-6.3c11.5,0,11.4,6.4,11.4,15.9v75.1l-14,0V41.7
	c0-3.2-0.9-5.9-4.2-5.9c-4.4,0-5,4-5,5.9v72.8l-13.8,0V24.7z"/>
<polygon class="st0" points="162.2,2.3 162.2,114.6 176.1,114.6 176.1,67.2 177.5,67.2 185.9,114.6 200.5,114.6 191,65.3 
	199.7,24.7 185.7,24.7 177.5,66.1 176.1,66.1 176.1,2.3 "/>
</svg>
