<?xml version="1.0" encoding="utf-8"?>
<!-- Generator: Adobe Illustrator 19.2.0, SVG Export Plug-In . SVG Version: 6.00 Build 0)  -->
<svg version="1.1" id="Layer_1" xmlns="http://www.w3.org/2000/svg" xmlns:xlink="http://www.w3.org/1999/xlink" x="0px" y="0px"
	 viewBox="0 0 488.7 115" style="enable-background:new 0 0 488.7 115;" xml:space="preserve">
<style type="text/css">
	.st0{fill:#FFFFFF;}
</style>
<path class="st0" d="M57.3,64.7c-1.8,0-3.6-0.7-4.9-2c-2.7-2.7-2.7-7.2,0-9.9l50.3-50.3c2.7-2.7,7.2-2.7,9.9,0
	c2.7,2.7,2.7,7.1,0,9.9L62.2,62.6C60.9,64,59.1,64.7,57.3,64.7"/>
<path class="st0" d="M57.3,64.7c-1.8,0-3.6-0.7-4.9-2c-2.7-2.7-2.7-7.2,0-9.9l50.3-50.3c2.7-2.7,7.2-2.7,9.9,0
	c2.7,2.7,2.7,7.1,0,9.9L62.2,62.6C60.9,64,59.1,64.7,57.3,64.7z"/>
<path class="st0" d="M57.3,64.7c-1.8,0-3.6-0.7-4.9-2L2,12.3c-2.7-2.7-2.7-7.2,0-9.9s7.2-2.7,9.9,0l50.3,50.3c2.7,2.7,2.7,7.1,0,9.9
	C60.9,64,59.1,64.7,57.3,64.7"/>
<path class="st0" d="M57.3,64.7c-1.8,0-3.6-0.7-4.9-2L2,12.3c-2.7-2.7-2.7-7.2,0-9.9s7.2-2.7,9.9,0l50.3,50.3c2.7,2.7,2.7,7.1,0,9.9
	C60.9,64,59.1,64.7,57.3,64.7z"/>
<path class="st0" d="M481.7,115.4c-2.6,0-5-1.4-6.3-3.9l-44-88.1l-44,88.1c-1.7,3.5-5.9,4.9-9.4,3.1c-3.5-1.7-4.9-5.9-3.1-9.4
	L425.1,4.6c1.2-2.4,3.6-3.9,6.2-3.9s5.1,1.5,6.2,3.9l50.3,100.6c1.7,3.5,0.3,7.6-3.1,9.4C483.8,115.1,482.7,115.4,481.7,115.4"/>
<path class="st0" d="M481.7,115.4c-2.6,0-5-1.4-6.3-3.9l-44-88.1l-44,88.1c-1.7,3.5-5.9,4.9-9.4,3.1c-3.5-1.7-4.9-5.9-3.1-9.4
	L425.1,4.6c1.2-2.4,3.6-3.9,6.2-3.9s5.1,1.5,6.2,3.9l50.3,100.6c1.7,3.5,0.3,7.6-3.1,9.4C483.8,115.1,482.7,115.4,481.7,115.4z"/>
<path class="st0" d="M57.3,115c-3.9,0-7-3.1-7-7V57.7c0-3.9,3.1-7,7-7s7,3.1,7,7V108C64.3,111.8,61.1,115,57.3,115"/>
<path class="st0" d="M57.3,115c-3.9,0-7-3.1-7-7V57.7c0-3.9,3.1-7,7-7s7,3.1,7,7V108C64.3,111.8,61.1,115,57.3,115z"/>
<path class="st0" d="M176.7,115c-31.6,0-57.3-25.7-57.3-57.3s25.7-57.3,57.3-57.3S234,26.1,234,57.7S208.3,115,176.7,115
	 M176.7,14.4c-23.9,0-43.3,19.4-43.3,43.3s19.4,43.3,43.3,43.3S220,81.6,220,57.7S200.6,14.4,176.7,14.4"/>
<path class="st0" d="M176.7,115c-31.6,0-57.3-25.7-57.3-57.3s25.7-57.3,57.3-57.3S234,26.1,234,57.7S208.3,115,176.7,115z
	 M176.7,14.4c-23.9,0-43.3,19.4-43.3,43.3s19.4,43.3,43.3,43.3S220,81.6,220,57.7S200.6,14.4,176.7,14.4z"/>
<path class="st0" d="M309,115.4c-31.7,0-57.5-25.8-57.5-57.5S277.3,0.4,309,0.4c15.3,0,29.8,6,40.6,16.8c2.7,2.7,2.7,7.1,0,9.9
	c-2.7,2.7-7.1,2.7-9.9,0c-8.2-8.2-19.1-12.7-30.7-12.7c-24,0-43.5,19.5-43.5,43.5s19.5,43.5,43.5,43.5c21.6,0,39.6-15.8,42.9-36.5
	H309c-3.9,0-7-3.1-7-7s3.1-7,7-7h50.5c3.9,0,7,3.1,7,7C366.4,89.6,340.6,115.4,309,115.4"/>
<path class="st0" d="M309,115.4c-31.7,0-57.5-25.8-57.5-57.5S277.3,0.4,309,0.4c15.3,0,29.8,6,40.6,16.8c2.7,2.7,2.7,7.1,0,9.9
	c-2.7,2.7-7.1,2.7-9.9,0c-8.2-8.2-19.1-12.7-30.7-12.7c-24,0-43.5,19.5-43.5,43.5s19.5,43.5,43.5,43.5c21.6,0,39.6-15.8,42.9-36.5
	H309c-3.9,0-7-3.1-7-7s3.1-7,7-7h50.5c3.9,0,7,3.1,7,7C366.4,89.6,340.6,115.4,309,115.4z"/>
</svg>
